<svg id="SvgjsSvg1006" width="376" height="694" xmlns="http://www.w3.org/2000/svg" version="1.1" xmlns:xlink="http://www.w3.org/1999/xlink" xmlns:svgjs="http://svgjs.com/svgjs"><defs id="SvgjsDefs1007"><marker id="SvgjsMarker1060" markerWidth="16" markerHeight="12" refX="16" refY="6" viewBox="0 0 16 12" orient="auto" markerUnits="userSpaceOnUse" stroke-dasharray="0,0"><path id="SvgjsPath1061" d="M0,2 L14,6 L0,11 L0,2" fill="#323232" stroke="#323232" stroke-width="2"></path></marker><marker id="SvgjsMarker1064" markerWidth="16" markerHeight="12" refX="16" refY="6" viewBox="0 0 16 12" orient="auto" markerUnits="userSpaceOnUse" stroke-dasharray="0,0"><path id="SvgjsPath1065" d="M0,2 L14,6 L0,11 L0,2" fill="#323232" stroke="#323232" stroke-width="2"></path></marker><marker id="SvgjsMarker1068" markerWidth="16" markerHeight="12" refX="16" refY="6" viewBox="0 0 16 12" orient="auto" markerUnits="userSpaceOnUse" stroke-dasharray="0,0"><path id="SvgjsPath1069" d="M0,2 L14,6 L0,11 L0,2" fill="#323232" stroke="#323232" stroke-width="2"></path></marker><marker id="SvgjsMarker1072" markerWidth="16" markerHeight="12" refX="16" refY="6" viewBox="0 0 16 12" orient="auto" markerUnits="userSpaceOnUse" stroke-dasharray="0,0"><path id="SvgjsPath1073" d="M0,2 L14,6 L0,11 L0,2" fill="#323232" stroke="#323232" stroke-width="2"></path></marker><marker id="SvgjsMarker1076" markerWidth="16" markerHeight="12" refX="16" refY="6" viewBox="0 0 16 12" orient="auto" markerUnits="userSpaceOnUse" stroke-dasharray="0,0"><path id="SvgjsPath1077" d="M0,2 L14,6 L0,11 L0,2" fill="#323232" stroke="#323232" stroke-width="2"></path></marker><marker id="SvgjsMarker1080" markerWidth="16" markerHeight="12" refX="16" refY="6" viewBox="0 0 16 12" orient="auto" markerUnits="userSpaceOnUse" stroke-dasharray="0,0"><path id="SvgjsPath1081" d="M0,2 L14,6 L0,11 L0,2" fill="#323232" stroke="#323232" stroke-width="2"></path></marker><marker id="SvgjsMarker1084" markerWidth="16" markerHeight="12" refX="16" refY="6" viewBox="0 0 16 12" orient="auto" markerUnits="userSpaceOnUse" stroke-dasharray="0,0"><path id="SvgjsPath1085" d="M0,2 L14,6 L0,11 L0,2" fill="#323232" stroke="#323232" stroke-width="2"></path></marker><marker id="SvgjsMarker1088" markerWidth="16" markerHeight="12" refX="16" refY="6" viewBox="0 0 16 12" orient="auto" markerUnits="userSpaceOnUse" stroke-dasharray="0,0"><path id="SvgjsPath1089" d="M0,2 L14,6 L0,11 L0,2" fill="#323232" stroke="#323232" stroke-width="2"></path></marker></defs><g id="SvgjsG1008" transform="translate(138,25)"><path id="SvgjsPath1009" d="M 17.333333333333332 0L 82.66666666666667 0C 105.77777777777777 0 105.77777777777777 52 82.66666666666667 52L 17.333333333333332 52C -5.777777777777778 52 -5.777777777777778 0 17.333333333333332 0Z" stroke="rgba(50,50,50,1)" stroke-width="2" fill-opacity="1" fill="#ffffff"></path><g id="SvgjsG1010"><text id="SvgjsText1011" font-family="微软雅黑" text-anchor="middle" font-size="15px" width="80px" fill="#323232" font-weight="400" align="middle" lineHeight="125%" anchor="middle" family="微软雅黑" size="15px" weight="400" font-style="" opacity="1" y="15.125" transform="rotate(0)"><tspan id="SvgjsTspan1012" dy="18" x="50"><tspan id="SvgjsTspan1013" style="text-decoration:;">开始</tspan></tspan></text></g></g><g id="SvgjsG1014" transform="translate(25,113)"><path id="SvgjsPath1015" d="M 0 0L 326 0L 326 52L 0 52Z" stroke="rgba(50,50,50,1)" stroke-width="2" fill-opacity="1" fill="#ffffff"></path><g id="SvgjsG1016"><text id="SvgjsText1017" font-family="微软雅黑" text-anchor="middle" font-size="15px" width="306px" fill="#323232" font-weight="400" align="middle" lineHeight="125%" anchor="middle" family="微软雅黑" size="15px" weight="400" font-style="" opacity="1" y="6.125" transform="rotate(0)"><tspan id="SvgjsTspan1018" dy="18" x="163"><tspan id="SvgjsTspan1019" style="text-decoration:;">初始化（使能时钟）</tspan></tspan><tspan id="SvgjsTspan1020" dy="18" x="163"><tspan id="SvgjsTspan1021" style="text-decoration:;fill: rgb(33, 150, 243);">LED 灯、LCD 屏幕、按钮、EXTI 中断</tspan></tspan></text></g></g><g id="SvgjsG1022" transform="translate(102.5,206)"><path id="SvgjsPath1023" d="M 0 0L 171 0L 171 52L 0 52Z" stroke="rgba(50,50,50,1)" stroke-width="2" fill-opacity="1" fill="#ffffff"></path><g id="SvgjsG1024"><text id="SvgjsText1025" font-family="微软雅黑" text-anchor="middle" font-size="15px" width="151px" fill="#323232" font-weight="400" align="middle" lineHeight="125%" anchor="middle" family="微软雅黑" size="15px" weight="400" font-style="" opacity="1" y="15.125" transform="rotate(0)"><tspan id="SvgjsTspan1026" dy="18" x="85.5"><tspan id="SvgjsTspan1027" style="text-decoration:;">LCD 显示初始参数</tspan></tspan></text></g></g><g id="SvgjsG1028" transform="translate(120,296)"><path id="SvgjsPath1029" d="M 0 0L 136 0L 136 52L 0 52Z" stroke="rgba(50,50,50,1)" stroke-width="2" fill-opacity="1" fill="#ffffff"></path><g id="SvgjsG1030"><text id="SvgjsText1031" font-family="微软雅黑" text-anchor="middle" font-size="15px" width="116px" fill="#323232" font-weight="400" align="middle" lineHeight="125%" anchor="middle" family="微软雅黑" size="15px" weight="400" font-style="" opacity="1" y="15.125" transform="rotate(0)"><tspan id="SvgjsTspan1032" dy="18" x="68"><tspan id="SvgjsTspan1033" style="text-decoration:;">点亮 LED1</tspan></tspan></text></g></g><g id="SvgjsG1034" transform="translate(97,383)"><path id="SvgjsPath1035" d="M 0 0L 182 0L 182 52L 0 52Z" stroke="rgba(50,50,50,1)" stroke-width="2" fill-opacity="1" fill="#ffffff"></path><g id="SvgjsG1036"><text id="SvgjsText1037" font-family="微软雅黑" text-anchor="middle" font-size="15px" width="162px" fill="#323232" font-weight="400" align="middle" lineHeight="125%" anchor="middle" family="微软雅黑" size="15px" weight="400" font-style="" opacity="1" y="15.125" transform="rotate(0)"><tspan id="SvgjsTspan1038" dy="18" x="91"><tspan id="SvgjsTspan1039" style="text-decoration:;">读取延时时间变量 t</tspan></tspan></text></g></g><g id="SvgjsG1040" transform="translate(131,466)"><path id="SvgjsPath1041" d="M 0 0L 114 0L 114 52L 0 52Z" stroke="rgba(50,50,50,1)" stroke-width="2" fill-opacity="1" fill="#ffffff"></path><g id="SvgjsG1042"><text id="SvgjsText1043" font-family="微软雅黑" text-anchor="middle" font-size="15px" width="94px" fill="#323232" font-weight="400" align="middle" lineHeight="125%" anchor="middle" family="微软雅黑" size="15px" weight="400" font-style="" opacity="1" y="15.125" transform="rotate(0)"><tspan id="SvgjsTspan1044" dy="18" x="57"><tspan id="SvgjsTspan1045" style="text-decoration:;">延时 t 毫秒</tspan></tspan></text></g></g><g id="SvgjsG1046" transform="translate(97,551)"><path id="SvgjsPath1047" d="M 0 0L 182 0L 182 44L 0 44Z" stroke="rgba(50,50,50,1)" stroke-width="2" fill-opacity="1" fill="#ffffff"></path><g id="SvgjsG1048"><text id="SvgjsText1049" font-family="微软雅黑" text-anchor="middle" font-size="15px" width="162px" fill="#323232" font-weight="400" align="middle" lineHeight="125%" anchor="middle" family="微软雅黑" size="15px" weight="400" font-style="" opacity="1" y="11.125" transform="rotate(0)"><tspan id="SvgjsTspan1050" dy="18" x="91"><tspan id="SvgjsTspan1051" style="text-decoration:;">关闭 LED1，点亮 LED2</tspan></tspan></text></g></g><g id="SvgjsG1052" transform="translate(131,625)"><path id="SvgjsPath1053" d="M 0 0L 114 0L 114 44L 0 44Z" stroke="rgba(50,50,50,1)" stroke-width="2" fill-opacity="1" fill="#ffffff"></path><g id="SvgjsG1054"><text id="SvgjsText1055" font-family="微软雅黑" text-anchor="middle" font-size="15px" width="94px" fill="#323232" font-weight="400" align="middle" lineHeight="125%" anchor="middle" family="微软雅黑" size="15px" weight="400" font-style="" opacity="1" y="11.125" transform="rotate(0)"><tspan id="SvgjsTspan1056" dy="18" x="57"><tspan id="SvgjsTspan1057" style="text-decoration:;">……</tspan></tspan></text></g></g><g id="SvgjsG1058"><path id="SvgjsPath1059" d="M188 348L188 365.5L188 365.5L188 383" stroke="#323232" stroke-width="2" fill="none" marker-end="url(#SvgjsMarker1060)"></path></g><g id="SvgjsG1062"><path id="SvgjsPath1063" d="M188 435L188 451L188 451L188 466" stroke="#323232" stroke-width="2" fill="none" marker-end="url(#SvgjsMarker1064)"></path></g><g id="SvgjsG1066"><path id="SvgjsPath1067" d="M188 258L188 276L188 276L188 296" stroke="#323232" stroke-width="2" fill="none" marker-end="url(#SvgjsMarker1068)"></path></g><g id="SvgjsG1070"><path id="SvgjsPath1071" d="M188 165L188 186.5L188 186.5L188 206" stroke="#323232" stroke-width="2" fill="none" marker-end="url(#SvgjsMarker1072)"></path></g><g id="SvgjsG1074"><path id="SvgjsPath1075" d="M188 77L188 94L188 94L188 113" stroke="#323232" stroke-width="2" fill="none" marker-end="url(#SvgjsMarker1076)"></path></g><g id="SvgjsG1078"><path id="SvgjsPath1079" d="M188 518L188 532.5L188 532.5L188 551" stroke="#323232" stroke-width="2" fill="none" marker-end="url(#SvgjsMarker1080)"></path></g><g id="SvgjsG1082"><path id="SvgjsPath1083" d="M188 595L188 610L188 610L188 625" stroke="#323232" stroke-width="2" fill="none" marker-end="url(#SvgjsMarker1084)"></path></g><g id="SvgjsG1086"><path id="SvgjsPath1087" d="M245 647L331 647L331 322L256 322" stroke="#323232" stroke-width="2" fill="none" marker-end="url(#SvgjsMarker1088)"></path></g></svg>