<svg id="SvgjsSvg1006" width="350" height="374" xmlns="http://www.w3.org/2000/svg" version="1.1" xmlns:xlink="http://www.w3.org/1999/xlink" xmlns:svgjs="http://svgjs.com/svgjs"><defs id="SvgjsDefs1007"><marker id="SvgjsMarker1034" markerWidth="16" markerHeight="12" refX="16" refY="6" viewBox="0 0 16 12" orient="auto" markerUnits="userSpaceOnUse" stroke-dasharray="0,0"><path id="SvgjsPath1035" d="M0,2 L14,6 L0,11 L0,2" fill="#323232" stroke="#323232" stroke-width="2"></path></marker><marker id="SvgjsMarker1038" markerWidth="16" markerHeight="12" refX="16" refY="6" viewBox="0 0 16 12" orient="auto" markerUnits="userSpaceOnUse" stroke-dasharray="0,0"><path id="SvgjsPath1039" d="M0,2 L14,6 L0,11 L0,2" fill="#323232" stroke="#323232" stroke-width="2"></path></marker><marker id="SvgjsMarker1042" markerWidth="16" markerHeight="12" refX="16" refY="6" viewBox="0 0 16 12" orient="auto" markerUnits="userSpaceOnUse" stroke-dasharray="0,0"><path id="SvgjsPath1043" d="M0,2 L14,6 L0,11 L0,2" fill="#323232" stroke="#323232" stroke-width="2"></path></marker></defs><g id="SvgjsG1008" transform="translate(109.75,25)"><path id="SvgjsPath1009" d="M 17.333333333333332 0L 112.66666666666667 0C 135.77777777777777 0 135.77777777777777 52 112.66666666666667 52L 17.333333333333332 52C -5.777777777777778 52 -5.777777777777778 0 17.333333333333332 0Z" stroke="rgba(50,50,50,1)" stroke-width="2" fill-opacity="1" fill="#ffffff"></path><g id="SvgjsG1010"><text id="SvgjsText1011" font-family="微软雅黑" text-anchor="middle" font-size="15px" width="110px" fill="#323232" font-weight="400" align="middle" lineHeight="125%" anchor="middle" family="微软雅黑" size="15px" weight="400" font-style="" opacity="1" y="15.125" transform="rotate(0)"><tspan id="SvgjsTspan1012" dy="18" x="65"><tspan id="SvgjsTspan1013" style="text-decoration:;">检测到按键按下</tspan></tspan></text></g></g><g id="SvgjsG1014" transform="translate(78.25,118)"><path id="SvgjsPath1015" d="M 0 0L 193 0L 193 52L 0 52Z" stroke="rgba(50,50,50,1)" stroke-width="2" fill-opacity="1" fill="#ffffff"></path><g id="SvgjsG1016"><text id="SvgjsText1017" font-family="微软雅黑" text-anchor="middle" font-size="15px" width="173px" fill="#323232" font-weight="400" align="middle" lineHeight="125%" anchor="middle" family="微软雅黑" size="15px" weight="400" font-style="" opacity="1" y="15.125" transform="rotate(0)"><tspan id="SvgjsTspan1018" dy="18" x="96.5"><tspan id="SvgjsTspan1019" style="text-decoration:;">增/减延时时间变量 t 的值</tspan></tspan></text></g></g><g id="SvgjsG1020" transform="translate(25,206)"><path id="SvgjsPath1021" d="M 0 0L 299.5 0L 299.5 57L 0 57Z" stroke="rgba(50,50,50,1)" stroke-width="2" fill-opacity="1" fill="#ffffff"></path><g id="SvgjsG1022"><text id="SvgjsText1023" font-family="微软雅黑" text-anchor="middle" font-size="15px" width="280px" fill="#323232" font-weight="400" align="middle" lineHeight="125%" anchor="middle" family="微软雅黑" size="15px" weight="400" font-style="" opacity="1" y="17.625" transform="rotate(0)"><tspan id="SvgjsTspan1024" dy="18" x="150"><tspan id="SvgjsTspan1025" style="text-decoration:;">修改 LCD 为显示当前延时时间参数信息</tspan></tspan></text></g></g><g id="SvgjsG1026" transform="translate(124.75,297)"><path id="SvgjsPath1027" d="M 17.333333333333332 0L 82.66666666666667 0C 105.77777777777777 0 105.77777777777777 52 82.66666666666667 52L 17.333333333333332 52C -5.777777777777778 52 -5.777777777777778 0 17.333333333333332 0Z" stroke="rgba(50,50,50,1)" stroke-width="2" fill-opacity="1" fill="#ffffff"></path><g id="SvgjsG1028"><text id="SvgjsText1029" font-family="微软雅黑" text-anchor="middle" font-size="15px" width="80px" fill="#323232" font-weight="400" align="middle" lineHeight="125%" anchor="middle" family="微软雅黑" size="15px" weight="400" font-style="" opacity="1" y="15.125" transform="rotate(0)"><tspan id="SvgjsTspan1030" dy="18" x="50"><tspan id="SvgjsTspan1031" style="text-decoration:;">返回主程序</tspan></tspan></text></g></g><g id="SvgjsG1032"><path id="SvgjsPath1033" d="M174.75 77L174.75 98L174.75 98L174.75 118" stroke="#323232" stroke-width="2" fill="none" marker-end="url(#SvgjsMarker1034)"></path></g><g id="SvgjsG1036"><path id="SvgjsPath1037" d="M174.75 170L174.75 188.5L174.75 188.5L174.75 206" stroke="#323232" stroke-width="2" fill="none" marker-end="url(#SvgjsMarker1038)"></path></g><g id="SvgjsG1040"><path id="SvgjsPath1041" d="M174.75 263L174.75 280L174.75 280L174.75 297" stroke="#323232" stroke-width="2" fill="none" marker-end="url(#SvgjsMarker1042)"></path></g></svg>